<?xml version="1.0" encoding="utf-8" ?>
<svg xmlns="http://www.w3.org/2000/svg" xmlns:xlink="http://www.w3.org/1999/xlink" width="2048" height="1024">
	<path fill="#231F20" d="M133.43 647.234C134.338 647.206 135.238 647.246 136.144 647.306C140.279 647.58 144.761 648.219 147.64 651.505L146.918 653.002C143.414 654.263 140.46 654.307 136.763 654.202C131.886 654.889 129.17 654.799 124.723 652.566L124.645 651.014C127.201 648.795 130.246 648.139 133.43 647.234Z"/>
	<path fill="#231F20" fill-opacity="0.98431373" d="M183.119 647.46C190.171 646.494 201.385 645.48 207.751 649.002L207.784 650.826L205.499 652.705C198.144 653.226 187.754 654.334 181.065 650.966L180.719 649.368L183.119 647.46Z"/>
	<path fill="#231F20" d="M336.368 493.304C339.779 493.136 343.44 492.815 346.825 493.386C349.758 493.88 352.473 495.15 354.169 497.541L352.342 499.586L354.197 498.193C351.321 499.927 350.124 499.922 346.87 500.041C343.647 500.59 340.316 501.094 337.038 500.922C333.654 500.745 329.73 499.592 327.496 497.053L328.281 495.475C331.02 493.95 333.305 493.642 336.368 493.304Z"/>
	<path fill="#231F20" d="M413.449 494.484C438.809 494.552 464.032 494.015 489.412 494.705C499.815 494.988 510.767 494.717 521.02 496.535C516.377 497.97 510.606 497.639 505.75 497.874C485.005 498.89 464.261 498.822 443.502 499.248C431.233 499.499 418.03 501.254 405.921 499.16C403.603 498.759 400.06 498.458 398.679 496.514C403.537 495.027 408.417 494.811 413.449 494.484Z"/>
	<path fill="#231F20" d="M164.843 562.523C206.413 561.572 247.905 563.58 289.462 563.875C304.581 563.982 350.113 562.137 362.021 564.893C362.676 565.045 363.331 565.164 363.992 565.284C361.307 566.194 358.07 565.906 355.25 565.954C337.261 565.695 319.145 566.616 301.152 566.98Q254.221 567.981 207.279 568.03C192.052 568.044 168.417 570.075 154.013 565.672L154.049 564.805C157.595 563.015 160.934 562.815 164.843 562.523Z"/>
	<path fill="#231F20" d="M1499.23 341.499C1516.99 339.77 1534.1 340.872 1549.97 349.729C1566.06 358.71 1579.05 373.898 1585.04 391.358C1586.96 396.952 1587.76 402.876 1589.58 408.473C1590.45 411.139 1591.19 412.468 1593.64 413.754C1600.6 410.867 1607.57 404.188 1613.79 399.771C1622.43 393.627 1632.21 387.767 1641.87 383.371C1685.26 363.624 1728.54 358.649 1773.93 375.915C1813.38 390.925 1847.87 420.348 1865.16 459.296C1876.79 485.497 1879.59 516.693 1869.02 543.661C1860.9 564.371 1844.77 579.978 1824.59 588.876C1826.56 596.283 1826.53 605.137 1825.42 612.712C1822.82 630.406 1812.61 644.68 1798.46 655.234C1735.92 701.895 1591.54 673.333 1518.4 662.469C1518.06 662.943 1517.69 663.448 1517.26 663.849C1503.9 676.425 1464.48 685.168 1446.5 686.324C1424.19 687.757 1400.02 686.326 1378.34 680.614C1368.19 677.942 1358.27 673.264 1347.79 672.119C1333.88 670.599 1320.75 679.019 1306.81 679.354C1293.82 679.667 1281.79 672.964 1268.95 673.114C1247.79 673.362 1225.89 688.413 1200.25 689.031C1177.78 689.573 1155.63 686.381 1133.52 682.779C1119.27 680.457 1104.74 677.551 1090.27 677.292C1069.98 676.929 1050.76 687.138 1030.5 685.732C1012.54 684.487 996.11 675.69 977.896 675.675C956.601 675.657 937.098 686.671 915.793 687.536C888.255 688.655 861.994 679.587 834.867 679.675C816.663 679.734 798.944 686.949 780.746 688.38C764.38 689.667 747.82 689.179 731.416 689.246L663.5 689.911Q550.882 691.445 438.253 691.213C417.956 691.026 396.922 693.104 376.788 691.764C371.409 691.405 365.542 690.473 360.873 687.614C357.569 685.591 355.145 682.604 354.326 678.765C353.061 672.834 356.003 666.483 359.187 661.659C367.634 648.861 382.094 640.009 396.991 636.923C415.485 633.092 429.915 638.187 445.179 648.17C445.798 638.368 447.471 629.558 451.937 620.728C466.127 592.671 499.45 576.248 527.963 566.972C574.901 551.701 608.76 555.296 652.667 577.562C674.644 549.581 691.255 533.23 727.217 523.587C773.818 511.091 809.283 527.151 848.77 550.025C848.776 544.146 849.116 538.093 849.911 532.269C853.96 502.634 871.269 477.449 894.806 459.596C921.369 439.447 957.133 430.89 990.037 435.585C1002.42 437.352 1028.6 442.651 1036.59 453.336C1039.99 450.195 1042.14 443.891 1044.39 439.785C1053.54 423.093 1066.99 412.277 1084.15 404.343C1112.34 391.31 1148.83 388.234 1178.18 399.13C1200.98 407.594 1215.35 422.648 1225.41 444.412L1227.59 444.521Q1233.17 436.529 1238.92 428.659C1257.04 404.255 1284.69 388.79 1314.7 384.428C1337.26 381.147 1362.44 384.729 1380.98 398.756C1388.57 404.501 1406.54 424.933 1407.75 433.602C1424.22 424.586 1425.14 401.126 1434.46 386.394C1450.87 360.459 1469.52 348.135 1499.23 341.499ZM1708.83 371.5C1658.18 377.014 1615 398.572 1583 438.537C1578.84 443.73 1574.61 449.409 1571.65 455.397C1567.11 464.604 1564.63 477.083 1557.65 484.577C1564.25 489.653 1568.41 503.078 1569.37 511.049C1570.88 523.552 1568.01 531.92 1560.33 541.503C1558.66 543.587 1556.97 545.386 1554.78 546.924L1554.23 546.083C1559.04 533.18 1568.88 515.572 1562.44 501.646C1552.46 480.095 1537.23 470.304 1515.64 462.772C1484.45 451.89 1453.99 450.882 1423.87 465.476C1418.08 468.279 1412.23 471.71 1406.1 473.678C1409.7 468.494 1409.96 460.973 1408.9 454.952C1405.47 435.47 1391.2 413.691 1374.8 402.52C1355.92 389.655 1331.08 387.207 1309.09 391.444C1275.39 397.938 1252.41 417.533 1233.45 445.464C1228.88 452.2 1226.93 465.784 1218.51 469.212C1216.59 464.678 1222 459.238 1220.89 454.461C1222.02 451.099 1220.99 448.522 1219.49 445.468C1209.58 425.267 1194.17 410.656 1172.68 403.445C1145 394.157 1110.43 397.309 1084.43 410.345C1065.38 419.891 1050.31 435.203 1043.68 455.82C1040.86 464.562 1039.99 475.629 1044.33 484.039C1050.06 495.13 1060.16 493.32 1067.71 500.551L1067.18 501.868C1063.11 503.45 1058.64 501.464 1054.88 499.818C1047.62 496.636 1042.36 491.718 1039.57 484.21C1036.73 476.541 1037.56 468.45 1035.12 461.115C1031.74 453.644 1019.84 449.647 1012.68 446.954C983.178 435.857 947.235 438.692 918.821 451.749C893.452 463.406 870.472 485.888 860.73 512.324C854.457 529.349 852.435 548.167 860.251 564.998Q860.944 566.493 861.663 567.976C823.991 541.537 786.484 518.266 738.3 526.733C708.424 531.983 679.627 548.551 662.1 573.595C653.013 586.581 647.115 601.409 650.054 617.558C651.464 625.303 655.067 633.022 661.717 637.585C668.886 642.505 680.031 642.491 688.212 645.627L689.054 644.845L687.519 645.406L689.616 646.523C683.852 649.432 674.694 647.417 668.766 645.401C659.975 642.411 653.052 636.744 648.935 628.361C642.312 614.874 644.329 600.811 649.164 587.214C649.622 585.925 650.118 584.674 650.698 583.434C610.862 562.303 575.661 557.969 532.382 571.285C505.579 579.532 470.889 595.177 457.237 621.46Q455.911 623.987 454.753 626.596C451.748 636.13 448.542 651.675 452.798 661.317C452.964 661.692 453.292 662.145 453.506 662.466C453.165 664.05 452.767 664.14 451.561 665.154C449.172 664.552 448.517 663.819 447.228 661.697C446.139 659.904 445.559 657.596 444.947 655.593C432.221 645.768 418.899 639.108 402.291 641.35C387.881 643.295 373.194 651.306 364.522 663.055C361.677 666.909 358.718 672.262 359.626 677.248C360.072 679.698 361.301 681.706 363.38 683.088C367.349 685.727 373.245 686.12 377.903 686.307C397.224 687.082 416.834 685.996 436.183 685.893Q499.635 685.75 563.08 684.966L719.251 683.282C738.61 683 758.132 683.749 777.461 682.862C796.77 681.976 814.979 673.964 834.334 673.741C867.484 673.36 899.924 687.525 933.158 679.358C957.275 673.432 975.366 666.136 1000.16 672.946C1010.12 675.684 1020.14 679.234 1030.53 679.751C1050.48 680.741 1069.54 670.446 1089.72 671.005C1125.56 671.997 1159.69 684.45 1195.86 683.685C1222.59 683.119 1238.43 671.118 1261.57 667.52C1277.48 665.047 1290.49 673.65 1305.91 673.571C1319.34 673.502 1331.75 666.524 1345.15 666.332C1357.03 666.161 1368.71 672.087 1380.04 675.118C1415.03 684.483 1453.4 682.043 1487.7 671.054C1496.01 668.394 1510.6 663.795 1515.17 655.772C1515.29 655.558 1515.37 655.32 1515.46 655.094C1538.41 658.967 1554.86 661.581 1575.19 647.109C1580.97 642.998 1586.31 637.492 1589.94 631.395C1592.44 627.186 1592.89 615.744 1597.66 614.563L1598.98 615.88C1598.12 628.558 1592.94 638.743 1583.28 647.02C1574.76 654.321 1563.23 659.628 1552.38 662.241C1617.25 669.457 1680.94 680.556 1746.18 668.833C1763.81 665.665 1782.68 660.934 1796.96 649.554C1809.74 639.375 1817.49 625.969 1819.25 609.64C1819.92 603.392 1820.6 589.071 1816.7 584.186C1816.54 583.987 1816.37 583.8 1816.2 583.606C1816.1 583.411 1816 583.214 1815.89 583.021C1811.6 575.351 1803.57 571.212 1798.48 564.321L1798.95 563.212C1803.05 562.548 1808.49 566.484 1811.67 568.759C1816.18 571.99 1818.49 580.359 1822.54 582.197C1838.15 577.853 1851.04 565.283 1858.85 551.507C1871.71 528.821 1870.96 499.211 1864.06 474.772C1854.49 440.861 1826.26 409.541 1795.83 392.576C1768.85 377.532 1739.87 369.42 1708.83 371.5Z"/>
	<path fill="#231F20" d="M780.158 628.819C782.418 628.851 785.577 628.671 787.678 629.442C789.886 630.252 790.088 631.194 790.887 633.188C790.369 636.261 789.148 638.332 787.559 640.955C785.427 640.631 783.022 640.53 780.992 639.798C778.406 638.866 777.455 637.331 776.426 634.964C777.043 632.072 778.153 630.818 780.158 628.819Z"/>
	<path fill="#231F20" d="M980.781 519.042C985.162 518.684 989.113 518.529 992.732 521.481C994.424 522.862 995.389 524.762 995.415 526.932C995.453 530.065 993.431 532.689 991.265 534.718C987.328 535.026 982.845 534.955 979.622 532.304C977.878 530.87 977.111 529.32 976.92 527.108C976.637 523.83 978.78 521.348 980.781 519.042Z"/>
	<path fill="#231F20" d="M1507.02 515.88L1507.16 514.191C1502.7 504.686 1490.3 491.456 1479.54 488.899C1473.08 487.362 1459.69 490.901 1454.67 486.774L1455.52 485.515C1461.35 482.778 1466.08 482.383 1472.47 483.311C1485.02 485.137 1498.41 492.792 1505.93 503.091C1507.76 505.596 1510.22 508.682 1509.73 511.94L1510.15 515.237L1507.02 515.88Z"/>
	<path fill="#231F20" d="M1812.67 493.496C1813.17 493.423 1813.33 493.389 1813.9 493.37C1817.02 493.263 1818.97 494.294 1821.2 496.475C1824.75 499.945 1825.93 505.519 1826.04 510.302C1826.27 520.197 1823.52 529.971 1816.43 537.14C1810.56 543.077 1803.98 544.927 1795.82 545.042C1794.86 544.822 1793.96 544.193 1793.1 543.715C1794.65 539.892 1810.18 536.754 1815.33 531.858C1819.63 527.777 1821.93 522.344 1821.97 516.433C1822.03 508.997 1817.88 498.89 1812.67 493.496Z"/>
	<path fill="#231F20" fill-opacity="0.98823529" d="M1509.73 511.94C1513.66 515.407 1514.9 520.106 1515.27 525.207C1515.88 533.452 1513.52 541.428 1507.93 547.607C1500.28 556.05 1485.08 562.367 1473.64 562.805C1471.1 562.903 1468.65 562.884 1466.24 562.001L1465.6 560.696C1467.55 557.867 1470.73 557.112 1473.94 556.527C1486.43 554.244 1497.67 554.329 1505.76 542.851C1509.29 537.852 1511.38 529.684 1510.35 523.637C1509.84 520.599 1508.77 518.38 1507.02 515.88L1510.15 515.237L1509.73 511.94Z"/>
	<path fill="#231F20" d="M1611.4 464.499C1614.54 463.9 1618.07 463.152 1621.19 464.162Q1621.64 464.306 1622.07 464.496Q1622.5 464.685 1622.91 464.919Q1623.32 465.153 1623.7 465.428Q1624.08 465.703 1624.43 466.016Q1624.78 466.329 1625.1 466.677Q1625.42 467.026 1625.69 467.405Q1625.97 467.784 1626.21 468.191Q1626.45 468.597 1626.64 469.026C1627.95 471.871 1627.64 475.175 1626.37 477.969C1624.32 482.447 1620.82 485.217 1616.27 486.796C1615.22 487.834 1612.98 488.168 1611.52 488.263C1609.24 488.41 1607.78 487.698 1606.27 486C1604.05 483.506 1603.79 479.539 1604.02 476.362C1604.44 470.804 1607.31 467.936 1611.4 464.499Z"/>
	<path fill="#231F20" d="M1111 647.475C1119.02 646.045 1125.41 655.208 1132.53 658.139C1138.56 660.624 1146.48 661.111 1152.95 661.424C1168.61 662.182 1184.77 660.514 1200.08 657.189C1207.69 655.537 1231.01 646.113 1236.91 647.591L1235.68 648.713C1227.76 658.201 1188.2 664.344 1175.83 665.469C1160.61 666.854 1139.86 667.268 1126.17 659.469C1120.56 656.277 1115.92 651.593 1111 647.475Z"/>
	<path fill="#231F20" d="M1758.8 561.497C1761.13 561.147 1763.21 561.294 1765.46 561.936C1773.37 564.198 1780.97 572.778 1784.85 579.831C1788.96 587.312 1789.9 595.367 1787.39 603.546C1783.1 617.481 1771.7 627.557 1759.09 634.033C1732.72 647.581 1707.45 649.594 1679.32 640.624L1677.07 638.538L1677.18 637.44C1682.93 634.099 1699.81 640.65 1706.81 641.283C1726.09 643.025 1753.47 634.418 1768.51 622.208C1777.24 615.122 1781.83 607.327 1783.03 596.2C1783.79 594.22 1782.95 591.569 1782.52 589.513C1778.88 571.992 1761.33 569.156 1758.8 561.497Z"/>
	<path fill="#231F20" d="M1080.8 573.49C1086.96 572.668 1091.56 572.59 1096.76 576.451C1101.76 580.162 1105.26 585.71 1106.05 591.926C1106.6 596.19 1105.69 600.613 1102.93 603.989C1099.21 608.529 1094.74 609.316 1089.16 609.787C1085.83 610.055 1082.29 609.876 1079.01 609.258C1074.9 608.485 1070.54 606.55 1068.2 602.94C1066.05 599.636 1065.89 595.449 1066.7 591.689C1068.6 582.814 1073.49 578.152 1080.8 573.49Z"/>
	<path fill="#231F20" d="M1688.28 506.499C1694.29 506.053 1698.79 507.034 1703.61 510.822C1709.42 515.379 1712.7 522.587 1713.54 529.809C1714.5 537.989 1712.19 546.597 1706.98 553.02C1702.14 558.992 1696.4 561.435 1688.86 562.121C1685.56 562.185 1682.88 561.678 1679.84 560.365C1674.45 558.044 1670.68 554.556 1668.52 549.068Q1668.22 548.304 1667.97 547.527Q1667.71 546.75 1667.49 545.96Q1667.27 545.171 1667.09 544.372Q1666.91 543.573 1666.77 542.766Q1666.64 541.958 1666.54 541.145Q1666.44 540.332 1666.38 539.515Q1666.32 538.698 1666.31 537.88Q1666.29 537.061 1666.31 536.242Q1666.34 535.423 1666.4 534.607Q1666.47 533.791 1666.57 532.978Q1666.68 532.166 1666.82 531.36Q1666.97 530.554 1667.16 529.757Q1667.34 528.959 1667.57 528.172Q1667.79 527.385 1668.06 526.61Q1668.32 525.835 1668.63 525.074Q1668.93 524.313 1669.27 523.568C1673.28 514.825 1679.39 509.753 1688.28 506.499Z"/>
	<path fill="#231F20" d="M1279.22 580.499C1286.72 579.533 1294.53 579.359 1301.35 583.136C1306.12 585.779 1309.58 590.015 1310.96 595.316C1312.6 601.631 1311.04 608.321 1307.71 613.813C1303.18 621.294 1295.51 625.773 1287.17 627.737C1282.36 629.477 1274.64 629.111 1269.9 627.277C1265.19 625.454 1261.74 621.635 1259.81 617.037Q1259.56 616.432 1259.35 615.815Q1259.13 615.199 1258.94 614.572Q1258.76 613.945 1258.6 613.309Q1258.45 612.674 1258.33 612.031Q1258.21 611.389 1258.12 610.741Q1258.03 610.093 1257.98 609.442Q1257.92 608.79 1257.9 608.137Q1257.88 607.484 1257.89 606.83Q1257.9 606.176 1257.95 605.524Q1257.99 604.872 1258.07 604.223Q1258.15 603.574 1258.26 602.929Q1258.37 602.285 1258.51 601.647Q1258.65 601.009 1258.83 600.379Q1259 599.749 1259.21 599.129Q1259.42 598.509 1259.65 597.9Q1259.89 597.291 1260.16 596.695C1264.01 587.958 1270.69 583.802 1279.22 580.499Z"/>
</svg>
