<?xml version="1.0" encoding="utf-8" ?>
<svg xmlns="http://www.w3.org/2000/svg" xmlns:xlink="http://www.w3.org/1999/xlink" width="2048" height="1024">
	<path fill="#231F20" d="M742.531 639.095Q745.508 638.995 748.436 639.542C752.763 640.362 758.692 643.117 761.254 646.884L760.392 649.302L758.363 649.921C751.89 645.687 742.916 646.505 738.931 643.409L739.181 641.58L742.531 639.095Z"/>
	<path fill="#231F20" d="M681.969 632.27C684.945 632.105 688.016 631.987 690.995 632.143C693.919 632.295 696.183 633.048 698.134 635.177C694.406 638.529 688.461 637.437 683.734 637.208C679.446 639.627 678.394 642.811 672.58 642.541L671.869 641.222C674.227 636.504 677.336 634.543 681.969 632.27Z"/>
	<path fill="#231F20" fill-opacity="0.98039216" d="M763.808 598.84C767.294 603.549 769.724 609.803 774.064 613.534C776.8 613.705 777.565 612.805 779.785 611.342C781.813 614.54 782.16 614.414 785.646 615.24C779.734 618.999 775.673 623.974 771.306 629.335C768.611 619.638 765.794 611.395 760.594 602.741C762.061 601.902 762.906 600.226 763.808 598.84Z"/>
	<path fill="#231F20" d="M779.785 611.342C787.57 606.905 795.512 606.996 804.065 609.258C813.684 611.802 824.053 618.663 829.14 627.371C830.96 630.484 831.915 634.073 830.824 637.635C829.975 640.409 828.213 642.782 826.072 644.687L824.709 644.633C823.669 634.661 823.218 627.1 814.768 620.278C808.217 614.989 799.826 612.777 791.521 613.802C789.492 614.053 787.577 614.587 785.646 615.24C782.16 614.414 781.813 614.54 779.785 611.342Z"/>
	<path fill="#231F20" d="M1827.4 361.501C1836.1 361.134 1844.72 360.964 1853.43 361.189C1842.48 365.594 1765.98 368.362 1748.75 369.016C1738.11 370.079 1729.45 369.808 1718.95 367.64C1754.9 362.654 1791.35 364.6 1827.4 361.501Z"/>
	<path fill="#231F20" d="M534.027 661.404C536.968 661.456 538.805 661.819 541.469 663.116L541.931 664.462C534.374 668.651 434.418 668.926 417.906 668.707L405.472 667.516C447.666 662.01 491.496 663.462 534.027 661.404Z"/>
	<path fill="#231F20" d="M1108.1 410.499C1119.09 410.299 1146.02 407.914 1154.77 413.513C1139.16 419.326 1059.58 416.005 1036.75 415.734C1022.02 415.968 1007.01 415.603 992.312 414.523C1028.42 409.363 1070.81 413.57 1108.1 410.499Z"/>
	<path fill="#231F20" fill-opacity="0.98823529" d="M630.738 493.459C657.498 492.848 683.615 493.377 710.303 495.31C675.591 501.591 629.209 496.529 592.758 498.789C565.979 498.826 539.29 500.305 512.5 499.64C528.413 496.628 545.501 496.344 561.662 495.757C584.686 494.921 607.72 494.474 630.738 493.459Z"/>
	<path fill="#231F20" d="M989.475 686.5C1010.81 684.606 1033.42 685.989 1054.91 686.004C1078.14 686.019 1107.43 683.801 1129.79 687.586C1073.63 688.357 1017.48 692.535 961.25 692.198C935.056 692.911 908.923 692.419 882.732 692.641C862.476 692.813 838.583 695.568 818.811 691.369C841.789 691.664 865.119 689.624 888.13 688.943C921.892 687.944 955.74 687.976 989.475 686.5Z"/>
	<path fill="#231F20" d="M457.109 682.531C503.076 680.127 550.666 682.51 596.722 684.156C575.662 688 552.425 686.676 531.001 686.891Q472.126 687.379 413.25 687.268C368.102 686.791 320.62 691.071 275.815 686.428C300.376 683.317 325.582 684.251 350.307 683.996L457.109 682.531Z"/>
	<path fill="#231F20" d="M394.48 581.185Q396.822 581.128 399.164 581.2C409.697 581.572 416.876 586.66 423.835 594.045C428.819 593.031 434.154 592.051 439.248 592.78C442.458 593.24 446.013 595.754 447.833 598.396C448.793 599.791 448.493 600.108 448.222 601.687C441.117 607.74 416.42 604.266 407.166 603.81C393.069 604.43 378.109 605.964 364.066 604.389C360.236 603.96 357.214 603.583 354.755 600.513C355.149 598.18 355.488 596.12 356.677 594.038C361.091 586.309 368.258 594.983 373.306 594.19C375.669 593.819 384.146 584.068 394.48 581.185Z"/>
	<path fill="#231F20" d="M443.791 617.251C450.262 616.587 457.043 616.347 463.484 617.438C474.452 619.296 482.119 624.582 488.434 633.6Q500.634 635.641 512.812 637.813Q485.031 638.714 457.236 638.993C444.064 638.832 407.275 643.205 397.001 638.869C394.85 637.961 394.556 637.507 393.72 635.5L395.02 632.957C403.248 626.432 412.417 626.735 422.321 627.002C429.241 622.362 435.566 619.09 443.791 617.251Z"/>
	<path fill="#231F20" d="M967.708 514.916C969.184 508.526 970.608 501.921 972.988 495.801C980.683 476.012 995.649 459.544 1015.17 450.996C1041.76 439.353 1073.35 441.455 1099.94 451.909C1106.01 454.298 1119.09 459.793 1121.8 466.018L1122.66 469.031C1121.26 469.978 1120.13 470.039 1118.5 470.177C1105.55 455.767 1076.76 449.157 1058.25 448.188C1036.76 447.064 1013.23 453.786 997.067 468.388C982.704 481.367 973.372 501.649 972.527 520.997C972.17 529.167 979.897 554.283 979.536 555.576C978.747 555.718 978.275 556.034 977.575 555.57C972.345 552.101 969.502 543.272 968.458 537.358C967.382 531.26 967.489 524.829 967.428 518.652C937.872 505.917 908.148 498.464 876.894 511.032C855.778 519.524 841.781 535.97 831.308 555.598C828.084 559.293 828.378 561.536 826.297 565.298C824.515 563.242 823.167 560.616 820.148 560.618C818.356 560.62 816.16 561.347 814.405 561.769C797.302 564.11 778.672 563.447 761.338 564.229Q697.023 567.277 632.855 572.585C616.708 573.905 598.665 573.855 582.855 576.857C582.702 576.886 582.551 576.918 582.399 576.949L582.025 576.399C591.1 572.452 606.589 572.712 616.527 571.664C683.983 564.549 756.84 558.102 824.585 557.952C829.13 549.112 833.708 540.014 840.449 532.609C815.466 534.524 790.443 535.409 765.432 536.82C751.003 537.633 736.624 539.276 722.17 539.543L721.984 538.959C731.678 536.342 744.364 536.269 754.433 535.281C784.269 532.354 814.377 529.583 844.3 527.828C856.21 515.684 870.882 506.787 887.416 502.641C915.104 495.697 943.417 500.281 967.708 514.916Z"/>
	<path fill="#231F20" d="M230.681 601.364Q232.574 601.232 234.469 601.154C254.319 600.274 265.989 608.227 279.961 621.005C281.777 618.755 283.802 615.947 286.103 614.185C288.512 612.342 292.15 611.331 295.143 611.915C302.687 613.386 307.46 622.168 311.18 628.121C315.705 627.113 320.315 625.957 324.982 626.348C336.46 627.309 342.715 635.903 349.666 643.985C309.703 643.745 269.633 644.423 229.669 644.962C211.536 644.914 193.349 644.635 175.223 645.144C157.666 645.638 139.185 647.13 121.688 645.919C118.779 645.717 115.388 645.43 112.924 643.721C111.689 642.863 111.876 642.323 111.658 640.923C113.771 636.982 117.957 633.606 121.836 631.52C141.403 620.994 165.391 628.546 184.95 634.701C186.057 632.659 187.207 630.619 188.517 628.699C198.653 613.845 213.099 604.674 230.681 601.364Z"/>
	<path fill="#231F20" fill-opacity="0.98823529" d="M1531.82 386.939C1552.51 359.827 1571.23 341.027 1606.69 336.21C1633.63 332.551 1658.8 338.976 1680.38 355.582C1698.37 369.42 1713.82 391.597 1716.69 414.461C1717.56 421.397 1721.42 433.524 1717.86 439.401C1718.17 439.29 1718.49 439.182 1718.8 439.067C1726.94 436.058 1733.74 430.064 1741.39 426.048C1758.2 417.23 1783.18 418.565 1800.31 426.059C1816.43 433.11 1831.29 447.585 1837.63 464.054C1843.3 478.776 1844.77 496.43 1838.09 511.01C1837.12 513.125 1835.9 514.711 1834.07 516.138C1858.28 510.583 1877.64 503.54 1900.85 517.805C1913.59 525.638 1922.74 537.949 1926.01 552.617C1928.9 565.547 1926.71 578.035 1919.41 589.111C1899.76 618.914 1860.92 629.627 1827.91 636.103C1774.95 646.489 1719.36 647.535 1665.55 650.238Q1552.74 655.916 1439.79 657.429C1390.83 658.07 1341.83 657.447 1292.88 658.518L1038.99 665.438C1021.93 666.014 1004.72 666.246 987.696 667.143C962.184 668.486 937.089 670.46 911.489 669.989C891.564 669.622 871.383 668.917 852.245 662.861C849.701 666.284 847.243 669.873 844.425 673.074C830.228 677.125 814.161 675.531 799.471 675.917Q763.46 677.103 727.432 677.498C683.429 678.108 639.074 680.242 595.096 678.917C589.066 678.736 574.488 679.106 569.423 675.816C567.761 674.737 566.694 671.889 566.493 669.971C565.635 661.789 571.606 650.881 576.833 644.77C581.831 638.926 588.96 637.493 596.303 637.012Q598.595 636.865 600.891 636.813C600.206 623.861 600.813 614.15 610.051 603.987C619.587 593.495 633.56 588.626 647.472 588.142C662.187 587.63 674.408 592.289 686.084 601.012C696.94 589.472 709.273 581.546 725.668 581.031C739.125 580.608 750.523 585.667 760.135 594.84C761.467 596.111 762.7 597.364 763.808 598.84C762.906 600.226 762.061 601.902 760.594 602.741C751.698 593.009 741.689 586.426 728.025 585.957C715.45 585.525 703.991 590.359 694.997 599.049C691.16 602.756 688.904 606.655 686.576 611.369C676.786 600.587 666.605 593.968 651.524 593.304C638.487 592.731 624.461 597.022 614.871 606.092C609.031 611.614 605.245 618.68 605.017 626.819C604.852 632.745 606.135 637.367 610.268 641.675C613.038 644.562 615.943 647.132 618.46 650.263C608.786 645.055 599.775 639.278 588.328 642.789C582.233 644.659 577.648 652.274 574.873 657.703C572.816 661.727 571.158 665.344 571.984 669.916C575.39 673.728 583.798 673.29 588.8 673.564C632.345 675.943 676.621 672.418 720.261 672.148L797.921 671.974C811.744 671.9 826.968 672.91 840.536 670.444C845.183 664.21 847.073 659.259 848.849 651.807C850.683 650.308 850.916 647.993 851.616 645.759C852.904 649.533 853.617 653.366 854.357 657.278C857.99 658.705 861.816 659.94 865.619 660.838C898.422 668.585 944.29 665.099 978.054 662.622C987.186 661.952 996.229 660.56 1005.39 660.301L1304.69 652.286C1335.38 651.595 1366.1 652.665 1396.8 652.613Q1468 652.152 1539.16 649.98C1554.63 649.513 1570.19 650.24 1585.64 649.19C1599.17 648.269 1612.57 645.906 1624.24 638.593C1633.72 632.653 1643.49 622.068 1645.81 610.688C1646.54 607.152 1645.96 603.834 1643.93 600.867C1644.91 600.354 1645.58 599.705 1646.39 598.971L1645.84 594.867C1646.79 595.883 1647.76 596.925 1648.4 598.177C1651.4 604.077 1650.89 611.803 1648.59 617.8C1643.48 631.104 1631.4 641.314 1618.57 646.872C1648 646.942 1677.78 644.611 1707.17 642.886C1746.58 640.571 1786.48 638.803 1825.35 631.468C1855.59 625.762 1894.98 616.029 1913.29 588.989C1920.48 578.363 1923.32 566.794 1920.77 554.104C1918.14 541.02 1910.49 529.993 1899.35 522.679C1886.38 514.156 1866.02 511.276 1851.05 515.918C1841.64 518.834 1833.44 523.554 1823.63 525.651C1825.62 523.921 1829.07 521.471 1830.15 519.036C1831.79 515.335 1835.48 495.834 1835.81 491.078C1836.87 475.642 1831.79 459.515 1821.5 447.909C1809.78 434.691 1794.36 427.063 1776.69 426.058Q1775.11 425.958 1773.53 425.923Q1771.96 425.888 1770.38 425.919Q1768.8 425.95 1767.22 426.046Q1765.65 426.143 1764.07 426.304Q1762.5 426.466 1760.94 426.694Q1759.38 426.921 1757.82 427.213Q1756.27 427.505 1754.73 427.861Q1753.2 428.217 1751.67 428.637Q1750.15 429.057 1748.65 429.539Q1747.14 430.022 1745.66 430.567Q1744.18 431.112 1742.72 431.718Q1741.26 432.324 1739.83 432.99Q1738.4 433.657 1736.99 434.382Q1735.59 435.107 1734.22 435.89Q1732.85 436.673 1731.51 437.512Q1730.17 438.351 1728.87 439.245C1726.31 440.989 1722.95 443.075 1721.29 445.712C1717.49 451.758 1715.4 462.069 1709.98 466.681C1709.37 467.204 1709 466.937 1708.25 466.85C1707.8 461.18 1712.61 453.691 1713.57 447.629C1717.37 423.532 1709.95 399.354 1695.72 379.883C1680.7 359.331 1657.12 345.639 1632.06 341.77C1602.14 337.151 1571.16 349.593 1550.18 370.846C1544.66 376.444 1540.58 385.219 1534.29 389.61C1534.12 389.726 1533.95 389.831 1533.78 389.941Q1533.42 391.687 1533.14 393.449C1532.54 397.439 1541.36 414.754 1542.72 420.12C1547.02 437.033 1547.14 479.622 1533 491.759C1550.64 488.268 1567.23 486.98 1583.03 497.715C1594.35 505.412 1602.63 517.849 1605.07 531.35C1607.18 543.083 1604.9 554.409 1598.06 564.179C1596.84 565.927 1595.33 567.913 1593.42 568.938C1591.37 569.45 1591.07 569.027 1589.2 568.163C1595.08 562.537 1599.45 552.803 1600.59 544.89Q1600.74 543.85 1600.84 542.804Q1600.94 541.758 1600.98 540.709Q1601.03 539.659 1601.03 538.609Q1601.02 537.558 1600.97 536.509Q1600.91 535.46 1600.8 534.415Q1600.69 533.37 1600.53 532.331Q1600.38 531.293 1600.17 530.264Q1599.95 529.234 1599.69 528.216Q1599.43 527.199 1599.12 526.195Q1598.81 525.192 1598.45 524.204Q1598.09 523.217 1597.68 522.249Q1597.28 521.281 1596.82 520.334Q1596.37 519.387 1595.86 518.464Q1595.36 517.54 1594.82 516.643Q1594.27 515.745 1593.68 514.876Q1593.09 514.006 1592.46 513.167C1578.14 494.048 1551.31 488.355 1529.83 497.833C1522.78 500.941 1509.44 514.391 1502.39 513.309C1506.1 502.726 1523.71 500.221 1528.99 492.522C1529.08 492.393 1529.15 492.257 1529.24 492.124C1533.33 487.145 1535.52 479.999 1536.96 473.781C1543.6 445.112 1541.58 417.849 1525.64 392.579C1513.69 373.644 1493.4 358.936 1471.51 354.051C1448.06 348.818 1420.98 354.491 1400.88 367.393C1375.35 383.783 1355.65 412.203 1352.61 442.718C1351.69 451.972 1353.64 462.171 1351.54 471.219C1351.11 473.065 1351.01 473.827 1349.34 474.848C1345.45 466.227 1340.78 450.004 1333.05 444.511C1332.88 444.388 1332.7 444.277 1332.53 444.16C1334.64 442.496 1335.99 441.705 1338.65 441.162C1339.32 441.575 1339.99 441.997 1340.6 442.499C1343.51 444.88 1344.04 447.957 1344.52 451.464C1349.08 445.028 1350.41 427.431 1353.41 418.763C1362.28 393.058 1384.51 369.546 1408.86 357.814C1441.52 342.087 1482.81 344.208 1510.56 368.937C1514.25 372.229 1528.36 387.589 1531.28 388.617L1531.82 386.939Z"/>
	<path fill="#231F20" fill-opacity="0.98431373" d="M1774.84 528.5C1777.26 528.199 1779.78 527.834 1782.22 527.892C1789.51 528.063 1797.67 532.357 1802.57 537.615C1806.45 541.767 1811.89 549.205 1811.6 555.141C1811.41 558.839 1811.53 562.258 1809.7 565.599L1808.21 565.618C1807.45 561.469 1806.84 557.131 1805.71 553.069C1803.9 546.552 1799.15 540.507 1793.32 537.194C1792.52 535.928 1791.49 535.11 1790.17 534.399C1770.76 523.996 1760.2 550.698 1744.39 555.48C1753.92 543.731 1760.43 534.875 1774.84 528.5Z"/>
	<path fill="#231F20" fill-opacity="0.98431373" d="M856.532 646.8C858.626 643.87 859.162 644.043 862.524 643.368C866.154 644.522 869.9 645.784 873.683 646.294C881.158 647.302 894.467 645.704 900.606 650.146C897.538 653.154 890.915 653.146 886.747 653.087C877.149 652.951 865.151 651.134 856.532 646.8Z"/>
	<path fill="#231F20" fill-opacity="0.97254902" d="M1121.8 466.018C1126.58 468.01 1132.31 474.821 1134.27 479.546C1134.69 480.545 1134.81 481.623 1134.79 482.696C1138.37 477.329 1140.16 473.572 1140.62 467.124L1142.91 471.851C1143.27 476.137 1141.07 480.247 1140.64 484.466C1140.09 489.843 1142.59 496.508 1139.99 501.502C1138.6 501.634 1137.44 501.108 1136.63 499.807C1135.75 498.394 1135.41 494.858 1134.84 493.121C1132.08 484.803 1126.37 475.937 1119.23 470.705L1118.5 470.177C1120.13 470.039 1121.26 469.978 1122.66 469.031L1121.8 466.018Z"/>
	<path fill="#231F20" d="M1589.2 568.163C1591.07 569.027 1591.37 569.45 1593.42 568.938C1609.37 569.132 1628.1 571.21 1640 583.276C1642.71 586.024 1644.61 589.274 1646.01 592.846L1645.84 594.867L1646.39 598.971C1645.58 599.705 1644.91 600.354 1643.93 600.867C1643.99 600.355 1644.06 600.03 1644.01 599.532C1643.51 594.614 1637.12 586.993 1633.27 584.153C1618.58 573.321 1602.31 573.118 1585.03 575.582C1584.72 573.822 1588.08 569.821 1589.2 568.163Z"/>
	<path fill="#231F20" fill-opacity="0.97647059" d="M1285.57 401.956C1302.61 404.305 1327.66 425.719 1337.91 439.12C1338.53 439.932 1338.48 440.19 1338.65 441.162C1335.99 441.705 1334.64 442.496 1332.53 444.16C1332.06 443.693 1331.67 443.241 1331.32 442.676C1322.6 428.545 1307.38 417.611 1292.53 410.638C1288.09 408.552 1283.4 407.198 1278.94 405.044C1281.24 404.998 1283.03 405.001 1285.18 404.036L1285.57 401.956Z"/>
	<defs>
		<linearGradient id="gradient_0" gradientUnits="userSpaceOnUse" x1="853.18134" y1="640.68127" x2="849.33307" y2="643.69958">
			<stop offset="0" stop-color="#231F20" stop-opacity="0.96078432"/>
			<stop offset="1" stop-color="#231F20"/>
		</linearGradient>
	</defs>
	<path fill="url(#gradient_0)" d="M814.405 561.769C816.16 561.347 818.356 560.62 820.148 560.618C823.167 560.616 824.515 563.242 826.297 565.298C828.378 561.536 828.084 559.293 831.308 555.598C825.164 576.987 822.742 600.179 833.915 620.49C840.446 632.363 849.992 638.981 862.524 643.368C859.162 644.043 858.626 643.87 856.532 646.8L851.616 645.759C850.916 647.993 850.683 650.308 848.849 651.807C844.774 637.665 830.596 629.853 824.946 613.025C821.964 604.143 818.791 592.502 819.719 583.1C820.334 576.87 823.834 569.545 822.548 563.434C820.027 561.092 817.773 561.815 814.405 561.769Z"/>
	<path fill="#231F20" fill-opacity="0.98823529" d="M1406.04 566.499Q1408.9 566.212 1411.77 566.244Q1414.65 566.276 1417.5 566.628C1431.06 568.196 1445.6 575.742 1454.01 586.71C1456.26 589.645 1457.62 593.022 1456.96 596.757C1456.69 598.26 1456.51 598.229 1455.3 599.121C1450.36 597.034 1442.31 583.304 1436.55 578.951C1424.85 570.118 1411.85 571.204 1398.21 573.077C1389.77 575.723 1381.46 579.563 1374.22 584.707C1367.8 589.273 1359.32 602.382 1352.01 603.809C1351.99 601.844 1352.75 600.766 1353.81 599.171C1366.46 580.198 1384.3 570.972 1406.04 566.499Z"/>
	<path fill="#231F20" d="M1140.62 467.124C1146.81 454.332 1153.04 442.821 1162.59 432.186Q1163.53 431.147 1164.5 430.132Q1165.47 429.117 1166.46 428.126Q1167.46 427.135 1168.47 426.168Q1169.49 425.202 1170.53 424.261Q1171.57 423.32 1172.64 422.405Q1173.7 421.491 1174.78 420.602Q1175.87 419.714 1176.98 418.852Q1178.09 417.991 1179.21 417.157Q1180.34 416.324 1181.49 415.518Q1182.64 414.712 1183.81 413.935Q1184.98 413.158 1186.16 412.41Q1187.35 411.662 1188.55 410.944Q1189.76 410.225 1190.98 409.537Q1192.2 408.848 1193.44 408.19Q1194.68 407.532 1195.94 406.904Q1197.19 406.277 1198.46 405.681Q1199.73 405.084 1201.02 404.52Q1202.3 403.955 1203.6 403.422Q1204.9 402.889 1206.21 402.388Q1207.52 401.888 1208.84 401.419Q1210.16 400.951 1211.5 400.516Q1212.83 400.08 1214.17 399.678Q1215.52 399.275 1216.87 398.906Q1218.23 398.537 1219.59 398.201Q1220.95 397.866 1222.32 397.564Q1223.69 397.262 1225.07 396.994Q1226.44 396.726 1227.83 396.492Q1229.21 396.258 1230.6 396.058Q1231.99 395.858 1233.38 395.693Q1234.78 395.527 1236.17 395.396Q1237.57 395.265 1238.97 395.169Q1240.37 395.072 1241.77 395.01C1251.44 394.543 1278.24 395.284 1285.57 401.956L1285.18 404.036C1283.03 405.001 1281.24 404.998 1278.94 405.044C1253.55 395.855 1221.6 399.855 1197.54 411.164C1181.04 418.928 1160.86 435.601 1152.8 452.107C1149.96 457.927 1147.68 467.494 1142.91 471.851L1140.62 467.124Z"/>
</svg>
