<?xml version="1.0" encoding="UTF-8"?>
<svg version="1.1" viewBox="0 0 2048 2048" width="1280" height="1280" xmlns="http://www.w3.org/2000/svg">
<path transform="translate(0)" d="m0 0h2048v2048h-2048z" fill="#F8F8F8"/>
<path transform="translate(1338,553)" d="m0 0 4 2 7 7 6 7 8 7 9 9 7 8 39 39 7 8 52 52v2l4 2 9 10 51 51 7 8 8 7 7 8 32 32 7 8 68 68 7 8 50 50 7 8 45 45 7 8 33 33-2 2-34 4-129 13-111 12-76 9-77 9-236 30-33 4h-10l4-4 23-11 28-10 33-10 49-13 52-12 66-14 56-11 98-18 69-12 3-1-18-7-54-19-62-20-43-13-52-15-65-17-65-15-53-11-68-12-57-8-33-4-56-5-34-2-31-1h-60l-57 3-33 3-31 4-50 9-40 10-29 9-23 8-29 12-35 17-27 16-18 12-14 10-16 13-14 12-8 8-8 7-8 8-9 11-9 10-10 13-13 18-11 17-12 21-15 29-11 27-10 27-9 30-9 39-6 33-4 29-4 51-1 15v84l1 18h-3l-4-8-10-32-7-27-7-33-6-39-3-29-1-18v-40l2-34 4-33 5-25 6-25 8-27 9-24 12-27 8-16 9-16 10-13 12-14 9-10 7-8 19-19 8-7 9-8 11-9 18-14 19-13 20-13 26-15 15-8 33-15 27-11 25-9 36-11 40-10 44-9 39-6 47-5 43-3 16-1 39-1h31l44 1 57 3 71 6 43 5 62 9 56 9 95 19 69 16 75 19 70 20 33 10 55 17 5 2-7-8-8-8-7-8-10-10-7-8-10-10-7-8-14-15-7-8-11-12-12-14-9-10-9-11-13-15-9-11-13-16-22-28-18-24-13-18-12-17-20-30-10-16-14-24-10-18-16-32z" fill="#C3C3C4"/>
</svg>
